<?xml version="1.0" standalone="no"?>
<!DOCTYPE svg PUBLIC "-//W3C//DTD SVG 20010904//EN"
 "http://www.w3.org/TR/2001/REC-SVG-20010904/DTD/svg10.dtd">
<svg version="1.0" xmlns="http://www.w3.org/2000/svg"
 width="1008.000000pt" height="1008.000000pt" viewBox="0 0 1008.000000 1008.000000"
 preserveAspectRatio="xMidYMid meet">
<metadata>
Created by potrace 1.14, written by Peter Selinger 2001-2017
</metadata>
<g transform="translate(0.000000,1008.000000) scale(0.100000,-0.100000)"
fill="#000000" stroke="none">
<path d="M0 5040 l0 -4480 3360 0 3360 0 -2 120 c-2 66 1 120 5 120 5 0 5 4 2
10 -5 8 -9 435 -4 465 1 6 1 14 0 19 -1 4 -1 45 -1 90 1 44 1 90 1 101 -1 11
0 52 0 90 1 39 1 78 1 88 -1 9 7 17 16 17 9 0 519 1 1132 1 613 0 1135 4 1160
9 25 4 61 10 80 13 44 7 136 32 175 48 17 7 36 13 43 15 8 1 46 19 85 39 206
106 361 244 481 433 44 68 77 134 75 148 0 4 4 10 9 13 11 7 68 174 77 227 3
21 10 62 15 89 4 28 9 188 9 356 2 332 -1 353 -53 422 -16 20 -52 48 -83 63
l-55 27 -527 0 c-608 0 -550 8 -711 -111 -52 -39 -99 -75 -105 -79 -5 -5 -25
-20 -44 -33 -19 -14 -42 -31 -50 -37 -9 -7 -50 -37 -91 -67 -41 -31 -79 -59
-85 -64 -5 -4 -80 -59 -165 -122 -85 -62 -160 -119 -166 -127 -14 -17 -29 -17
-46 0 -7 7 -56 44 -108 82 -52 38 -97 72 -100 75 -3 3 -21 17 -40 30 -19 13
-38 29 -42 35 -4 5 -8 6 -8 2 0 -4 -15 6 -33 22 -17 17 -35 31 -39 31 -4 0
-13 6 -20 13 -34 31 -98 77 -107 77 -6 0 -11 4 -11 8 0 4 -12 15 -27 24 -16 9
-39 26 -53 38 -61 53 -219 164 -260 183 -39 17 -65 20 -187 20 l-143 1 -1 65
c-1 36 -1 69 -1 72 1 8 2 127 1 149 0 8 0 57 1 107 l1 93 1575 -1 c1064 0
1586 4 1613 11 132 35 206 198 149 331 -24 56 -89 114 -145 130 -39 11 -329
13 -1615 14 -861 0 -1569 3 -1573 6 -3 4 -5 55 -5 115 1 60 1 118 0 129 -2 25
-2 21 0 137 2 95 5 104 34 99 6 -1 60 -2 120 -1 61 1 118 1 126 1 8 0 51 0 95
0 44 0 96 0 115 0 19 0 85 0 145 0 61 0 117 0 125 0 8 0 51 0 95 0 44 0 96 0
115 0 19 0 87 0 150 0 63 0 122 0 130 0 8 0 49 0 90 0 41 0 91 0 110 0 19 0
85 0 145 0 61 0 117 0 125 0 8 0 51 0 95 0 44 0 96 0 115 0 19 0 85 0 145 0
61 0 117 0 125 0 19 0 165 0 205 1 17 0 53 -1 80 -2 41 -1 241 -2 320 -1 11 0
95 1 186 1 183 1 233 12 286 62 78 74 86 105 79 298 -4 86 -9 167 -11 180 -3
14 -7 52 -10 85 -2 33 -5 60 -5 60 -3 0 -10 42 -15 84 -3 24 -9 60 -15 80 -9
36 -16 70 -27 126 -3 17 -8 37 -13 45 -4 8 -11 33 -15 55 -9 44 -9 43 -18 65
-3 8 -11 33 -18 55 -6 22 -15 45 -20 51 -5 6 -7 13 -4 16 10 9 -136 346 -182
421 -13 20 -21 37 -17 37 3 0 -4 13 -15 29 -12 16 -21 34 -21 40 0 6 -4 11
-10 11 -5 0 -10 6 -10 13 0 19 -195 308 -245 363 -5 6 -26 30 -45 54 -98 123
-283 308 -405 405 -27 22 -56 47 -65 55 -9 8 -32 26 -53 40 -20 14 -37 28 -37
33 0 4 -6 7 -13 7 -7 0 -25 11 -40 25 -15 14 -27 22 -27 18 0 -4 -4 -3 -8 2
-14 19 -272 179 -272 168 0 -3 -8 1 -18 9 -16 14 -186 99 -207 104 -5 2 -44
17 -85 34 -60 26 -269 101 -302 109 -4 1 -13 4 -20 6 -21 8 -281 64 -318 69
-19 3 -44 7 -55 10 -11 2 -51 7 -90 11 -38 4 -83 9 -100 12 -24 3 -417 14
-502 13 -25 0 -23 -28 -22 360 0 58 0 114 0 125 0 11 0 101 0 200 0 99 0 187
0 195 -1 22 0 141 1 149 0 3 0 25 -1 49 l-1 42 -3360 0 -3360 0 0 -4480z
m6885 2876 c36 0 65 3 65 7 0 5 3 6 8 4 4 -3 63 -8 132 -12 69 -3 136 -8 150
-10 14 -2 48 -6 75 -10 28 -3 64 -9 80 -12 17 -4 37 -7 45 -8 25 -4 84 -15
100 -20 8 -2 29 -7 47 -10 18 -3 45 -10 60 -16 15 -6 35 -12 43 -14 34 -7 166
-48 175 -55 6 -4 28 -13 50 -20 53 -17 259 -113 263 -122 2 -5 12 -8 22 -8 9
0 23 -7 30 -15 7 -8 18 -15 26 -15 7 0 19 -6 26 -14 8 -7 32 -23 54 -35 47
-26 77 -44 84 -52 3 -3 28 -21 55 -39 28 -19 52 -37 53 -42 2 -4 8 -8 13 -8
16 0 198 -158 289 -250 106 -108 147 -154 185 -205 17 -22 38 -48 47 -59 60
-66 199 -295 271 -446 91 -190 149 -344 182 -486 2 -11 9 -37 14 -59 16 -64
24 -108 25 -132 1 -13 4 -23 7 -23 3 0 6 -12 6 -27 0 -16 4 -44 7 -63 3 -19 8
-54 10 -77 4 -46 -1 -49 -69 -44 -18 1 -129 1 -165 0 -8 0 -24 0 -35 1 -11 1
-54 2 -95 2 -41 -1 -84 -1 -95 -1 -29 0 -202 -1 -260 -2 -5 0 -19 0 -30 1 -11
1 -54 2 -95 2 -41 -1 -84 -1 -95 -1 -17 0 -93 0 -147 -1 -10 0 -26 0 -35 0
-56 -1 -131 -1 -148 -1 -11 0 -63 0 -115 0 -91 -1 -104 0 -132 2 -7 1 -35 1
-63 0 -63 -2 -215 -3 -235 -2 -42 3 -125 -1 -132 -5 -4 -3 -8 -1 -8 5 0 6 -11
6 -29 1 -16 -4 -31 -6 -33 -4 -4 3 -76 5 -138 3 -8 0 -24 0 -35 1 -11 1 -54 2
-95 2 -41 -1 -84 -1 -95 -1 -23 0 -114 0 -195 -1 -30 -1 -62 -1 -70 -1 -28 1
-122 0 -128 0 -4 -1 -26 -1 -49 0 -33 1 -42 5 -42 19 0 9 0 60 0 112 0 117 1
111 -1 135 -1 11 -1 81 -1 155 0 74 0 173 0 218 0 46 2 86 5 90 4 3 17 7 29 9
41 6 101 34 124 59 13 14 23 21 23 17 0 -20 51 84 56 116 11 64 11 101 1 101
-5 0 -4 6 2 14 8 10 9 16 1 21 -6 3 -7 12 -3 18 10 15 10 167 1 167 -4 0 -5 9
-3 19 2 11 -11 43 -28 72 -35 58 -101 107 -158 116 -19 2 -38 8 -42 12 -6 6
-8 71 -6 211 0 8 0 67 0 130 -2 165 -3 313 -2 330 1 8 0 38 0 65 -1 28 -1 57
0 65 0 8 1 41 1 72 l1 57 37 3 c20 2 43 2 49 0 7 -2 42 -5 78 -6z m10 -4821
c11 -5 31 -19 45 -31 14 -13 41 -33 60 -47 20 -13 44 -31 55 -40 11 -8 103
-77 205 -153 102 -75 195 -144 206 -153 12 -9 34 -25 50 -36 15 -11 33 -26 40
-32 7 -7 16 -13 21 -13 4 0 19 -10 33 -23 14 -12 54 -43 90 -70 36 -26 76 -55
89 -64 13 -10 28 -19 32 -19 5 -1 10 -2 12 -4 6 -5 46 -12 82 -14 37 -2 124
19 135 33 8 10 130 101 135 101 5 0 33 22 73 58 14 12 28 22 33 22 4 0 14 6
21 13 7 7 65 51 128 97 63 46 120 89 126 97 6 7 15 13 19 13 4 0 21 12 39 26
17 14 74 57 126 95 52 38 105 78 117 89 12 11 26 20 31 20 5 0 20 11 33 23
l24 24 317 -1 c174 -1 319 -4 322 -7 9 -8 12 -117 4 -124 -3 -4 -2 -19 2 -35
4 -16 6 -31 4 -33 -3 -2 -7 -40 -9 -83 -2 -44 -11 -105 -19 -137 -16 -57 -72
-187 -86 -197 -4 -3 -11 -12 -16 -21 -38 -69 -170 -186 -259 -229 -27 -14 -53
-29 -57 -35 -4 -5 -8 -7 -8 -3 0 3 -24 -2 -54 -13 -30 -10 -76 -21 -103 -25
-26 -3 -547 -7 -1158 -8 l-1110 -1 -2 30 c-1 17 -2 104 -2 195 0 91 0 174 -1
185 -1 11 -1 27 -1 35 0 94 0 281 0 340 0 41 0 96 0 121 l1 45 78 -1 c42 -1
86 -5 97 -10z"/>
<path d="M7871 6973 c-29 -8 -60 -20 -67 -28 -8 -7 -25 -22 -38 -32 -13 -10
-34 -39 -47 -63 -23 -43 -24 -54 -24 -230 0 -158 3 -190 18 -221 35 -71 98
-122 166 -136 38 -8 94 -10 106 -4 6 3 16 6 23 7 19 3 102 54 102 63 0 4 10
18 22 31 36 38 45 101 43 275 -2 88 -5 168 -7 177 -2 9 -19 39 -37 66 -58 84
-158 120 -260 95z"/>
</g>
</svg>
